# Blender 3.3.1
# www.blender.org
mtllib hoverBody_ground_effect.mtl
o Cube.001
v 1.175968 -0.447776 0.050000
v 1.131400 -0.899302 0.050000
v 1.080149 -1.350827 0.050000
v 1.080149 -1.350827 -0.050000
v 1.131400 -0.899302 -0.050000
v 1.175968 -0.447776 -0.050000
v 1.194426 0.003749 -0.050000
v 1.175968 0.455275 -0.050000
v -1.079871 1.358326 -0.050000
v -0.302003 2.108619 -0.050000
v -0.999422 1.645451 -0.050000
v -0.832541 1.888863 -0.050000
v -0.589128 2.051506 -0.050000
v -0.302003 2.108619 0.050000
v -1.079871 1.358326 0.050000
v -0.589128 2.051506 0.050000
v -0.832541 1.888863 0.050000
v -0.999422 1.645451 0.050000
v 0.302281 2.108619 -0.050000
v 1.080148 1.358326 -0.050000
v 0.589405 2.051506 -0.050000
v 0.832818 1.888863 -0.050000
v 0.999699 1.645451 -0.050000
v 1.080149 1.358326 0.050000
v 0.302281 2.108619 0.050000
v 0.999699 1.645451 0.050000
v 0.832818 1.888863 0.050000
v 0.589405 2.051506 0.050000
v -0.302003 -2.101120 -0.050000
v -1.079871 -1.350827 -0.050000
v -0.589128 -2.044008 -0.050000
v -0.832541 -1.881364 -0.050000
v -0.999422 -1.637952 -0.050000
v -1.079871 -1.350827 0.050000
v -0.302003 -2.101120 0.050000
v -0.999422 -1.637952 0.050000
v -0.832541 -1.881364 0.050000
v -0.589128 -2.044008 0.050000
v 1.080149 -1.350827 -0.050000
v 0.302281 -2.101120 -0.050000
v 0.999699 -1.637952 -0.050000
v 0.832818 -1.881364 -0.050000
v 0.589405 -2.044008 -0.050000
v 0.302281 -2.101120 0.050000
v 1.080149 -1.350827 0.050000
v 0.589405 -2.044008 0.050000
v 0.832818 -1.881364 0.050000
v 0.999699 -1.637952 0.050000
v 1.194426 0.003749 0.050000
v 1.175968 0.455275 0.050000
v -1.131123 -0.899302 -0.050000
v -1.175691 -0.447776 -0.050000
v -1.194149 0.003749 -0.050000
v -1.175691 0.455275 -0.050000
v -1.131123 0.906801 -0.050000
v -1.131123 -0.899302 0.050000
v -1.175691 -0.447776 0.050000
v -1.194149 0.003749 0.050000
v -1.175691 0.455275 0.050000
v -1.131123 0.906801 0.050000
vn -0.9936 0.1128 -0.0000
vn -0.0000 -1.0000 -0.0000
vn 0.9944 0.1055 -0.0000
vn -0.0000 -0.0000 1.0000
vn -0.0000 1.0000 -0.0000
vn -0.9629 0.2698 -0.0000
vn -0.8248 0.5655 -0.0000
vn -0.5556 0.8315 -0.0000
vn -0.1951 0.9808 -0.0000
vn 0.9629 0.2698 -0.0000
vn 0.8248 0.5655 -0.0000
vn 0.5556 0.8315 -0.0000
vn 0.1951 0.9808 -0.0000
vn 0.1951 -0.9808 -0.0000
vn 0.5556 -0.8315 -0.0000
vn 0.8248 -0.5655 -0.0000
vn 0.9629 -0.2698 -0.0000
vn -0.9629 -0.2698 -0.0000
vn -0.8248 -0.5655 -0.0000
vn -0.5556 -0.8315 -0.0000
vn -0.1951 -0.9808 -0.0000
vn -0.0000 -0.0000 -1.0000
vn 0.9992 0.0408 -0.0000
vn 0.9992 -0.0408 -0.0000
vn 0.9952 -0.0982 -0.0000
vn 0.9936 -0.1128 -0.0000
vn -0.9936 -0.1128 -0.0000
vn -0.9952 -0.0982 -0.0000
vn -0.9992 -0.0408 -0.0000
vn -0.9992 0.0408 -0.0000
vn -0.9952 0.0982 -0.0000
vt 0.723186 0.500000
vt 0.625000 0.401814
vt 0.696371 0.500000
vt 0.625000 0.428629
vt 0.669557 0.500000
vt 0.625000 0.455443
vt 0.330443 0.500000
vt 0.375000 0.455443
vt 0.375000 0.428629
vt 0.303629 0.500000
vt 0.276814 0.500000
vt 0.375000 0.401814
vt 0.250000 0.500000
vt 0.375000 0.375000
vt 0.223186 0.500000
vt 0.375000 0.348186
vt 0.375000 0.955443
vt 0.169557 0.750000
vt 0.375000 0.089114
vt 0.125000 0.660886
vt 0.375000 0.972494
vt 0.152506 0.743217
vt 0.375000 0.000000
vt 0.375000 1.000000
vt 0.138050 0.723899
vt 0.375000 0.055011
vt 0.128392 0.694988
vt 0.875000 0.660886
vt 0.625000 0.089114
vt 0.830443 0.750000
vt 0.625000 0.955443
vt 0.871608 0.694988
vt 0.625000 0.055011
vt 0.861950 0.723899
vt 0.625000 1.000000
vt 0.625000 0.000000
vt 0.847494 0.743217
vt 0.625000 0.972494
vt 0.375000 0.160886
vt 0.125000 0.589114
vt 0.375000 0.294557
vt 0.169557 0.500000
vt 0.375000 0.194989
vt 0.128392 0.555012
vt 0.375000 0.250000
vt 0.138050 0.526101
vt 0.375000 0.277506
vt 0.152506 0.506783
vt 0.625000 0.294557
vt 0.830443 0.500000
vt 0.875000 0.589114
vt 0.625000 0.160886
vt 0.847494 0.506783
vt 0.625000 0.277506
vt 0.861950 0.526101
vt 0.625000 0.250000
vt 0.871608 0.555012
vt 0.625000 0.194989
vt 0.375000 0.660886
vt 0.375000 0.794557
vt 0.330443 0.750000
vt 0.375000 0.694988
vt 0.371608 0.694988
vt 0.375000 0.750000
vt 0.361950 0.723899
vt 0.375000 0.777506
vt 0.347494 0.743217
vt 0.669557 0.750000
vt 0.625000 0.794557
vt 0.625000 0.660886
vt 0.652506 0.743217
vt 0.625000 0.777506
vt 0.638050 0.723899
vt 0.625000 0.750000
vt 0.628392 0.694988
vt 0.625000 0.694988
vt 0.375000 0.455443
vt 0.330443 0.500000
vt 0.375000 0.589114
vt 0.375000 0.472494
vt 0.347494 0.506783
vt 0.375000 0.500000
vt 0.361950 0.526101
vt 0.375000 0.555012
vt 0.371608 0.555012
vt 0.625000 0.589114
vt 0.669557 0.500000
vt 0.625000 0.455443
vt 0.628392 0.555012
vt 0.625000 0.555012
vt 0.638050 0.526101
vt 0.625000 0.500000
vt 0.652506 0.506783
vt 0.625000 0.472494
vt 0.750000 0.500000
vt 0.625000 0.375000
vt 0.776814 0.500000
vt 0.625000 0.348186
vt 0.303629 0.750000
vt 0.375000 0.821371
vt 0.276814 0.750000
vt 0.375000 0.848186
vt 0.250000 0.750000
vt 0.375000 0.875000
vt 0.223186 0.750000
vt 0.375000 0.901814
vt 0.196371 0.750000
vt 0.375000 0.928629
vt 0.696371 0.750000
vt 0.625000 0.821371
vt 0.723186 0.750000
vt 0.625000 0.848186
vt 0.750000 0.750000
vt 0.625000 0.875000
vt 0.776814 0.750000
vt 0.625000 0.901814
vt 0.803629 0.750000
vt 0.625000 0.928629
s 0
f 60/118/1 9/17/1 55/108/1
f 44/86/2 29/59/2 40/79/2
f 24/49/3 8/16/3 20/41/3
f 24/50/4 18/37/4 36/71/4
f 14/29/5 19/39/5 10/19/5
f 4/8/4 45/88/4 39/77/4
f 15/31/6 11/21/6 9/17/6
f 18/38/7 12/24/7 11/21/7
f 17/36/8 13/26/8 12/23/8
f 16/33/9 10/19/9 13/26/9
f 20/41/10 26/54/10 24/49/10
f 23/47/11 27/56/11 26/54/11
f 22/45/12 28/58/12 27/56/12
f 21/43/13 25/52/13 28/58/13
f 40/79/14 46/90/14 44/86/14
f 43/84/15 47/92/15 46/90/15
f 42/82/16 48/94/16 47/92/16
f 41/80/17 45/88/17 48/94/17
f 30/60/18 36/72/18 34/69/18
f 33/66/19 37/74/19 36/72/19
f 32/64/20 38/76/20 37/74/20
f 31/62/21 35/70/21 38/76/21
f 42/83/22 51/99/22 13/27/22
f 8/16/23 49/96/23 7/14/23
f 7/14/24 1/2/24 6/12/24
f 6/12/25 2/4/25 5/9/25
f 2/4/26 4/8/26 5/9/26
f 34/69/27 51/100/27 30/60/27
f 56/110/28 52/102/28 51/100/28
f 57/112/29 53/104/29 52/102/29
f 58/114/30 54/106/30 53/104/30
f 59/116/31 55/108/31 54/106/31
f 60/118/1 15/31/1 9/17/1
f 44/86/2 35/70/2 29/59/2
f 24/49/3 50/98/3 8/16/3
f 35/70/4 44/86/4 46/89/4
f 46/89/4 47/91/4 48/93/4
f 45/87/4 3/5/4 2/3/4
f 46/89/4 48/93/4 45/87/4
f 38/75/4 35/70/4 46/89/4
f 36/71/4 37/73/4 38/75/4
f 56/109/4 34/68/4 36/71/4
f 58/113/4 57/111/4 56/109/4
f 60/117/4 59/115/4 58/113/4
f 18/37/4 15/30/4 60/117/4
f 16/32/4 17/34/4 18/37/4
f 25/51/4 14/28/4 16/32/4
f 27/55/4 28/57/4 25/51/4
f 24/50/4 26/53/4 27/55/4
f 49/95/4 50/97/4 24/50/4
f 2/3/4 1/1/4 49/95/4
f 46/89/4 45/87/4 2/3/4
f 36/71/4 38/75/4 46/89/4
f 58/113/4 56/109/4 36/71/4
f 18/37/4 60/117/4 58/113/4
f 25/51/4 16/32/4 18/37/4
f 24/50/4 27/55/4 25/51/4
f 2/3/4 49/95/4 24/50/4
f 36/71/4 46/89/4 2/3/4
f 18/37/4 58/113/4 36/71/4
f 24/50/4 25/51/4 18/37/4
f 36/71/4 2/3/4 24/50/4
f 14/29/5 25/52/5 19/39/5
f 4/8/4 3/6/4 45/88/4
f 15/31/6 18/38/6 11/21/6
f 18/38/7 17/35/7 12/24/7
f 17/36/8 16/33/8 13/26/8
f 16/33/9 14/29/9 10/19/9
f 20/41/10 23/47/10 26/54/10
f 23/47/11 22/45/11 27/56/11
f 22/45/12 21/43/12 28/58/12
f 21/43/13 19/39/13 25/52/13
f 40/79/14 43/84/14 46/90/14
f 43/84/15 42/82/15 47/92/15
f 42/82/16 41/80/16 48/94/16
f 41/80/17 39/77/17 45/88/17
f 30/60/18 33/66/18 36/72/18
f 33/66/19 32/64/19 37/74/19
f 32/64/20 31/62/20 38/76/20
f 31/62/21 29/59/21 35/70/21
f 10/20/22 19/40/22 21/44/22
f 21/44/22 22/46/22 23/48/22
f 23/48/22 20/42/22 8/15/22
f 8/15/22 7/13/22 6/11/22
f 5/10/4 4/7/4 39/78/4
f 39/78/22 41/81/22 42/83/22
f 42/83/22 43/85/22 40/79/22
f 40/79/22 29/59/22 31/63/22
f 31/63/22 32/65/22 33/67/22
f 33/67/22 30/61/22 51/99/22
f 51/99/22 52/101/22 53/103/22
f 53/103/22 54/105/22 55/107/22
f 55/107/22 9/18/22 11/22/22
f 11/22/22 12/25/22 13/27/22
f 13/27/22 10/20/22 21/44/22
f 21/44/22 23/48/22 8/15/22
f 8/15/22 6/11/22 5/10/22
f 5/10/22 39/78/22 42/83/22
f 42/83/22 40/79/22 31/63/22
f 31/63/22 33/67/22 51/99/22
f 51/99/22 53/103/22 55/107/22
f 55/107/22 11/22/22 13/27/22
f 13/27/22 21/44/22 8/15/22
f 8/15/22 5/10/22 42/83/22
f 42/83/22 31/63/22 51/99/22
f 51/99/22 55/107/22 13/27/22
f 13/27/22 8/15/22 42/83/22
f 8/16/23 50/98/23 49/96/23
f 7/14/24 49/96/24 1/2/24
f 6/12/25 1/2/25 2/4/25
f 2/4/26 3/6/26 4/8/26
f 34/69/27 56/110/27 51/100/27
f 56/110/28 57/112/28 52/102/28
f 57/112/29 58/114/29 53/104/29
f 58/114/30 59/116/30 54/106/30
f 59/116/31 60/118/31 55/108/31
